Coordinates
version=1
nRows=18
nColumns=63
inDegrees=yes

Units are S.I. units (second, meters, Newtons, ...)
If the header above contains a line with 'inDegrees', this indicates whether rotational values are in degrees (yes) or radians (no).

endheader
time	pelvis_tilt	pelvis_list	pelvis_rotation	pelvis_tx	pelvis_ty	pelvis_tz	hip_flexion_r	hip_adduction_r	hip_rotation_r	knee_angle_r	knee_angle_r_beta	ankle_angle_r	subtalar_angle_r	mtp_angle_r	hip_flexion_l	hip_adduction_l	hip_rotation_l	knee_angle_l	knee_angle_l_beta	ankle_angle_l	subtalar_angle_l	mtp_angle_l	L5_S1_Flex_Ext	L5_S1_Lat_Bending	L5_S1_axial_rotation	L4_L5_Flex_Ext	L4_L5_Lat_Bending	L4_L5_axial_rotation	L3_L4_Flex_Ext	L3_L4_Lat_Bending	L3_L4_axial_rotation	L2_L3_Flex_Ext	L2_L3_Lat_Bending	L2_L3_axial_rotation	L1_L2_Flex_Ext	L1_L2_Lat_Bending	L1_L2_axial_rotation	L1_T12_Flex_Ext	L1_T12_Lat_Bending	L1_T12_axial_rotation	Abs_r3	Abs_r2	Abs_r1	Abs_t1	Abs_t2	neck_flexion	neck_bending	neck_rotation	arm_flex_r	arm_add_r	arm_rot_r	elbow_flex_r	pro_sup_r	wrist_flex_r	wrist_dev_r	arm_flex_l	arm_add_l	arm_rot_l	elbow_flex_l	pro_sup_l	wrist_flex_l	wrist_dev_l
0.000000	1.466026	-4.218766	106.155465	0.355015	0.453080	0.955562	11.115780	-3.228319	-20.460323	10.876039	0.189823	13.843302	17.348369	0.000000	8.052802	2.549289	-18.387552	2.545045	0.044419	15.803059	15.588192	0.000000	0.142214	-0.378688	0.137016	0.264106	-0.503654	0.145579	0.233644	-0.920741	0.145579	0.162537	-0.920741	0.119889	0.132060	-0.772220	0.111325	0.081261	-0.586587	0.102762	1.015824	-4.283789	0.762040	0.000000	0.000000	23.269109	6.077977	2.840480	22.338347	-9.815780	74.134997	49.791469	36.299132	4.937868	-4.105513	16.210595	-12.151743	55.005748	61.875146	85.953173	-7.567169	7.935794
0.016667	1.472436	-4.115434	106.444250	0.354907	0.453309	0.955318	10.971032	-3.192688	-20.362073	10.802763	0.188544	13.988861	16.785995	0.000000	7.957468	2.511222	-18.013999	2.680021	0.046775	15.908321	15.747032	0.000000	0.147838	-0.388227	0.239441	0.274550	-0.516341	0.254406	0.242883	-0.943934	0.254406	0.168964	-0.943934	0.209511	0.137282	-0.791672	0.194546	0.084475	-0.601363	0.179581	1.055992	-4.391697	1.331699	0.000000	0.000000	22.723706	5.744498	1.160535	22.189841	-10.487592	72.402543	51.625719	37.702957	6.157030	-0.452618	16.316058	-12.707444	55.105789	63.805509	80.095563	-8.650491	8.093348
0.033333	1.473698	-4.033437	106.634179	0.354777	0.453469	0.955120	10.866268	-3.172968	-20.273302	10.758961	0.187779	14.073170	16.350907	0.000000	7.870835	2.490726	-17.737404	2.773962	0.048415	15.999974	15.843612	0.000000	0.153138	-0.394453	0.313607	0.284393	-0.524623	0.333208	0.251591	-0.959074	0.333208	0.175022	-0.959074	0.274406	0.142204	-0.804369	0.254806	0.087503	-0.611008	0.235205	1.093851	-4.462136	1.744189	0.000000	0.000000	22.281907	5.487677	-0.080210	22.142139	-11.100855	71.147223	53.318101	38.818917	7.053553	2.435606	16.259800	-13.221314	55.022174	65.602319	75.257643	-9.646787	8.213923
0.050000	1.470016	-3.970902	106.737693	0.354628	0.453566	0.954962	10.796398	-3.167511	-20.193533	10.740213	0.187452	14.105331	16.029967	0.000000	7.792327	2.486296	-17.547256	2.831348	0.049416	16.079004	15.885660	0.000000	0.158101	-0.397854	0.362940	0.293610	-0.529146	0.385624	0.259745	-0.967342	0.385624	0.180694	-0.967342	0.317572	0.146813	-0.811304	0.294889	0.090339	-0.616276	0.272205	1.129302	-4.500605	2.018563	0.000000	0.000000	21.935172	5.300383	-0.929622	22.178387	-11.658157	70.314143	54.871888	39.669977	7.657885	4.631745	16.065670	-13.694084	54.786205	67.264744	71.351669	-10.561738	8.298631
0.066667	1.461595	-3.925954	106.767232	0.354465	0.453610	0.954836	10.756334	-3.174669	-20.122293	10.742100	0.187485	14.094447	15.810034	0.000000	7.721374	2.496427	-17.433042	2.856658	0.049858	16.146400	15.880904	0.000000	0.162714	-0.398915	0.390865	0.302175	-0.530556	0.415295	0.267322	-0.969921	0.415295	0.185965	-0.969921	0.342007	0.151096	-0.813467	0.317578	0.092975	-0.617919	0.293149	1.162247	-4.512601	2.173876	0.000000	0.000000	21.674959	5.175487	-1.435571	22.281736	-12.162085	69.848406	56.290357	40.279102	8.000473	6.208385	15.757514	-14.126484	54.429182	68.791950	68.289900	-11.401030	8.348588
0.083333	1.448638	-3.896719	106.735239	0.354289	0.453608	0.954733	10.740986	-3.192797	-20.059107	10.760201	0.187801	14.049620	15.677968	0.000000	7.657400	2.519614	-17.384251	2.854370	0.049818	16.203149	15.837074	0.000000	0.166961	-0.398121	0.400809	0.310064	-0.529501	0.425860	0.274301	-0.967992	0.425860	0.190820	-0.967992	0.350708	0.155040	-0.811848	0.325658	0.095402	-0.616690	0.300607	1.192589	-4.503625	2.229181	0.000000	0.000000	21.492727	5.105860	-1.645924	22.435331	-12.615227	69.695116	57.576783	40.669259	8.111765	7.238112	15.359181	-14.519246	53.982407	70.183106	65.984591	-12.170344	8.364909
0.100000	1.431351	-3.881323	106.654153	0.354105	0.453570	0.954647	10.745264	-3.220247	-20.003500	10.790096	0.188323	13.979954	15.620629	0.000000	7.599834	2.554351	-17.390371	2.828963	0.049375	16.250237	15.761897	0.000000	0.170831	-0.395960	0.396198	0.317250	-0.526626	0.420960	0.280658	-0.962736	0.420960	0.195243	-0.962736	0.346673	0.158634	-0.807441	0.321911	0.097613	-0.613341	0.297148	1.220228	-4.479175	2.203533	0.000000	0.000000	21.379935	5.084374	-1.608549	22.622321	-13.020170	69.799378	58.734441	40.863413	8.022207	7.793512	14.894517	-14.873098	53.477180	71.437378	64.348001	-12.875366	8.348708
0.116667	1.409937	-3.877891	106.536415	0.353917	0.453503	0.954569	10.764080	-3.255371	-19.954998	10.827367	0.188973	13.894550	15.624876	0.000000	7.548101	2.599133	-17.440891	2.784915	0.048606	16.288652	15.663103	0.000000	0.174308	-0.392916	0.380456	0.323708	-0.522579	0.404235	0.286371	-0.955337	0.404235	0.199217	-0.955337	0.332899	0.161863	-0.801235	0.309121	0.099600	-0.608628	0.285342	1.245067	-4.444749	2.115984	0.000000	0.000000	21.328042	5.103898	-1.371315	22.825854	-13.379500	70.106295	59.766607	40.884529	7.762248	7.947170	14.387371	-15.188771	52.944803	72.553934	63.292386	-13.521778	8.301100
0.133333	1.384602	-3.884550	106.394466	0.353727	0.453415	0.954491	10.792342	-3.296523	-19.913126	10.867593	0.189675	13.802512	15.677570	0.000000	7.501630	2.652455	-17.525298	2.726706	0.047590	16.319382	15.548419	0.000000	0.177380	-0.389477	0.357011	0.329412	-0.518005	0.379325	0.291418	-0.946975	0.379325	0.202728	-0.946975	0.312385	0.164715	-0.794222	0.290072	0.101355	-0.603301	0.267759	1.267008	-4.405847	1.985590	0.000000	0.000000	21.328506	5.157304	-0.982090	23.029078	-13.695806	70.560971	60.676557	40.755575	7.362335	7.771673	13.861589	-15.466997	52.416576	73.531940	62.730003	-14.115265	8.223200
0.150000	1.355548	-3.899425	106.240748	0.353538	0.453314	0.954406	10.824963	-3.342056	-19.877409	10.906355	0.190352	13.712941	15.765570	0.000000	7.459846	2.712811	-17.633081	2.658814	0.046405	16.343415	15.425575	0.000000	0.180032	-0.386129	0.329288	0.334338	-0.513551	0.349869	0.295775	-0.938834	0.349869	0.205759	-0.938834	0.288127	0.167178	-0.787394	0.267547	0.102870	-0.598114	0.246966	1.285953	-4.367967	1.831404	0.000000	0.000000	21.372786	5.237463	-0.488742	23.215141	-13.971675	71.108511	61.467566	40.499514	6.852914	7.339606	13.341020	-15.708504	51.923800	74.370566	62.573111	-14.661509	8.116122
0.166667	1.322982	-3.920642	106.087700	0.353355	0.453209	0.954306	10.856853	-3.390322	-19.847372	10.939232	0.190926	13.634941	15.875736	0.000000	7.422178	2.778696	-17.753728	2.585718	0.045129	16.361736	15.302298	0.000000	0.182251	-0.383357	0.300714	0.338459	-0.509864	0.319508	0.299421	-0.932094	0.319508	0.208295	-0.932094	0.263124	0.169239	-0.781741	0.244330	0.104138	-0.593820	0.225535	1.301803	-4.336608	1.672479	0.000000	0.000000	21.452341	5.337245	0.060860	23.367190	-14.209693	71.694019	62.142910	40.139314	6.264434	6.723555	12.849510	-15.914023	51.497776	75.068976	62.733965	-15.166194	7.980981
0.183333	1.257086	-3.961835	105.968461	0.353291	0.453118	0.954122	10.882549	-3.464650	-19.793888	10.960906	0.191304	13.617345	15.936082	0.000000	7.395236	2.876569	-17.872310	2.512308	0.043848	16.352266	15.222642	0.000000	0.183657	-0.389644	0.311613	0.341070	-0.518226	0.331089	0.301730	-0.947379	0.331089	0.209902	-0.947379	0.272662	0.170544	-0.794561	0.253186	0.104942	-0.603558	0.233710	1.311845	-4.407726	1.733100	0.000000	0.000000	21.580857	5.463890	0.368608	23.222564	-14.442573	71.612085	62.760514	39.943890	5.795664	6.468677	12.575373	-16.067945	51.402273	75.610452	62.988128	-15.575613	7.948470
0.200000	1.199288	-3.986089	105.901658	0.353192	0.453065	0.953928	10.868815	-3.523476	-19.762860	10.945468	0.191034	13.643758	15.990129	0.000000	7.360575	2.960733	-17.965688	2.459705	0.042930	16.353986	15.168614	0.000000	0.183894	-0.394773	0.317776	0.341510	-0.525048	0.337637	0.302119	-0.959851	0.337637	0.210172	-0.959851	0.278054	0.170764	-0.805021	0.258193	0.105077	-0.611503	0.238332	1.313536	-4.465751	1.767374	0.000000	0.000000	21.678855	5.571509	0.673303	23.119005	-14.652974	71.725106	63.261388	39.555943	5.259339	5.987738	12.383644	-16.207000	51.424537	75.999360	63.363630	-16.019882	7.797236
0.216667	1.144811	-4.003913	105.854538	0.353098	0.453036	0.953709	10.841726	-3.572296	-19.708753	10.914921	0.190501	13.723761	16.027605	0.000000	7.319033	3.038293	-18.076231	2.414193	0.042136	16.370816	15.154083	0.000000	0.183516	-0.400496	0.332618	0.340807	-0.532660	0.353407	0.301498	-0.973766	0.353407	0.209740	-0.973766	0.291041	0.170413	-0.816692	0.270252	0.104861	-0.620369	0.249464	1.310834	-4.530493	1.849922	0.000000	0.000000	21.783537	5.653704	0.853635	22.989544	-14.838985	71.869196	63.688291	38.888634	4.590100	5.518981	12.263915	-16.310280	51.548379	76.243565	64.005977	-16.541090	7.566678
0.233333	1.091998	-4.016748	105.878257	0.352974	0.453041	0.953447	10.780833	-3.612965	-19.672035	10.843424	0.189253	13.855948	16.051737	0.000000	7.279427	3.112614	-18.120716	2.388461	0.041687	16.396618	15.152883	0.000000	0.182987	-0.407160	0.346532	0.339826	-0.541523	0.368191	0.300630	-0.989969	0.368191	0.209136	-0.989969	0.303216	0.169922	-0.830281	0.281558	0.104559	-0.630691	0.259899	1.307060	-4.605875	1.927309	0.000000	0.000000	21.873919	5.727076	0.984854	22.849834	-14.976726	72.066729	63.984276	38.098599	3.937621	5.057892	12.229283	-16.408870	51.863916	76.361206	64.443993	-17.092041	7.193697
0.250000	1.049192	-4.027347	105.943687	0.352857	0.453090	0.953127	10.706465	-3.636423	-19.636401	10.752562	0.187668	14.007915	16.055291	0.000000	7.239299	3.173891	-18.152210	2.367696	0.041324	16.417910	15.193416	0.000000	0.182567	-0.414617	0.371824	0.339046	-0.551440	0.395063	0.299940	-1.008099	0.395063	0.208656	-1.008099	0.325346	0.169532	-0.845487	0.302107	0.104319	-0.642241	0.278868	1.304060	-4.690228	2.067972	0.000000	0.000000	21.960201	5.777840	0.960846	22.600072	-15.070531	72.103516	64.178430	37.156935	3.314045	4.830587	12.279182	-16.474267	52.381863	76.336143	64.659605	-17.628455	6.654687
0.266667	1.019284	-4.043354	106.088238	0.352698	0.453159	0.952751	10.614326	-3.647357	-19.661732	10.631430	0.185553	14.179621	16.070682	0.000000	7.215328	3.225930	-18.099777	2.362992	0.041242	16.442382	15.229273	0.000000	0.183436	-0.422413	0.392163	0.340659	-0.561809	0.416673	0.301367	-1.027055	0.416673	0.209649	-1.027055	0.343143	0.170338	-0.861384	0.318632	0.104815	-0.654318	0.294122	1.310263	-4.778420	2.181093	0.000000	0.000000	22.047644	5.827769	0.876599	22.305422	-15.088898	72.133191	64.178726	36.374212	2.871314	4.597932	12.339495	-16.511264	52.949705	76.214056	64.519844	-17.961828	6.152471
0.283333	0.998103	-4.058778	106.268550	0.352551	0.453265	0.952330	10.512708	-3.645030	-19.712019	10.499885	0.183258	14.349328	16.086382	0.000000	7.195289	3.264635	-18.048270	2.366043	0.041295	16.458851	15.331720	0.000000	0.184509	-0.430844	0.413260	0.342652	-0.573022	0.439089	0.303130	-1.047554	0.439089	0.210876	-1.047554	0.361603	0.171335	-0.878577	0.335774	0.105429	-0.667377	0.309945	1.317932	-4.873792	2.298429	0.000000	0.000000	22.132934	5.874274	0.704766	21.976611	-15.046505	72.239591	64.039241	35.133291	2.506378	4.431647	12.419037	-16.498621	53.571808	75.944064	64.295000	-18.124811	5.586878
